<svg aria-hidden="true" style="position: absolute; width: 0; height: 0; overflow: hidden;" version="1.1" xmlns="http://www.w3.org/2000/svg" xmlns:xlink="http://www.w3.org/1999/xlink">
<defs>
<symbol id="icon-twitter-3" viewBox="0 0 32 32">
<path d="M0.63 26.126c2.963 1.88 6.411 2.873 9.971 2.873 5.213 0 9.991-2.003 13.453-5.639 3.313-3.48 5.136-8.156 5.045-12.901 1.256-1.075 2.733-3.127 2.733-5.127 0-0.767-0.832-1.253-1.507-0.863-1.18 0.693-2.256 0.875-3.363 0.564-2.26-2.203-5.624-2.667-8.459-1.139-2.477 1.333-3.855 3.773-3.731 6.44-4.185-0.511-8.052-2.609-10.748-5.871-0.443-0.532-1.283-0.469-1.635 0.133-1.299 2.224-1.285 4.801-0.156 6.883-0.537 0.095-0.869 0.547-0.869 1.036 0 2.092 0.941 4.015 2.457 5.327-0.283 0.272-0.376 0.676-0.256 1.036 0.667 2.003 2.176 3.568 4.063 4.352-2.052 0.98-4.321 1.307-6.341 1.059-1.045-0.141-1.561 1.264-0.659 1.836zM10.874 23.574c0.748-0.575 0.351-1.772-0.588-1.792-1.653-0.035-3.159-0.849-4.096-2.131 0.452-0.029 0.92-0.099 1.365-0.219 1.015-0.275 0.967-1.739-0.064-1.945-1.871-0.376-3.339-1.739-3.889-3.493 0.503 0.124 1.015 0.193 1.525 0.203 1.012 0.005 1.395-1.292 0.569-1.835-1.86-1.225-2.653-3.389-2.128-5.424 3.248 3.291 7.655 5.273 12.316 5.497 0.668 0.041 1.169-0.587 1.023-1.223-0.633-2.745 0.9-4.669 2.547-5.556 1.629-0.88 4.245-1.155 6.251 0.949 0.596 0.628 2.607 0.652 3.629 0.413-0.459 0.864-1.164 1.684-1.824 2.145-0.281 0.197-0.443 0.525-0.425 0.868 0.215 4.38-1.417 8.735-4.477 11.947-3.083 3.236-7.345 5.019-12.005 5.019-1.853 0-3.671-0.301-5.388-0.883 2.053-0.397 4.004-1.267 5.66-2.541z"></path>
</symbol>
<symbol id="icon-instagram-3" viewBox="0 0 32 32">
<path d="M22 0h-12c-5.522 0-10 4.478-10 10v12c0 5.522 4.478 10 10 10h12c5.522 0 10-4.478 10-10v-12c0-5.522-4.478-10-10-10zM29 22c0 3.86-3.14 7-7 7h-12c-3.86 0-7-3.14-7-7v-12c0-3.86 3.14-7 7-7h12c3.86 0 7 3.14 7 7v12z"></path>
<path d="M16 8c-4.418 0-8 3.582-8 8s3.582 8 8 8c4.418 0 8-3.582 8-8s-3.582-8-8-8zM16 21c-2.756 0-5-2.244-5-5 0-2.758 2.244-5 5-5s5 2.242 5 5c0 2.756-2.244 5-5 5z"></path>
<path d="M24.597 8.466c0.589 0 1.066-0.477 1.066-1.066s-0.477-1.066-1.066-1.066c-0.589 0-1.066 0.477-1.066 1.066s0.477 1.066 1.066 1.066z"></path>
</symbol>
<symbol id="icon-facebook-3" viewBox="0 0 32 32">
<path d="M18.163 31.938h-5.135c-0.858 0-1.555-0.696-1.555-1.552v-11.559h-2.996c-0.858 0-1.555-0.697-1.555-1.552v-4.953c0-0.856 0.698-1.552 1.555-1.552h2.996v-2.48c0-2.459 0.774-4.552 2.237-6.050 1.47-1.506 3.525-2.301 5.942-2.301l3.916 0.006c0.856 0.001 1.553 0.698 1.553 1.552v4.599c0 0.856-0.697 1.552-1.555 1.552l-2.636 0.001c-0.804 0-1.009 0.161-1.053 0.21-0.072 0.082-0.158 0.313-0.158 0.951v1.96h3.649c0.275 0 0.541 0.068 0.77 0.195 0.493 0.275 0.8 0.795 0.8 1.358l-0.002 4.953c0 0.855-0.698 1.552-1.555 1.552h-3.661v11.559c0 0.856-0.698 1.552-1.556 1.552zM13.352 30.062h4.486v-12.075c0-0.572 0.466-1.036 1.038-1.036h4.179l0.002-4.305h-4.18c-0.572 0-1.038-0.465-1.038-1.036v-2.799c0-0.733 0.075-1.566 0.629-2.193 0.67-0.757 1.725-0.845 2.461-0.845l2.312-0.001v-3.952l-3.59-0.006c-3.884 0-6.298 2.481-6.298 6.476v3.32c0 0.571-0.466 1.036-1.038 1.036h-3.513v4.305h3.513c0.572 0 1.038 0.465 1.038 1.036v12.075zM23.564 1.82v0z"></path>
</symbol>
<symbol id="icon-burger" viewBox="0 0 80 32">
<path d="M0 0h80v4.103h-80v-4.103z"></path>
<path d="M0 12.309h80v4.103h-80v-4.103z"></path>
<path d="M0 24.615h80v4.103h-80v-4.103z"></path>
</symbol>
<symbol id="icon-play" viewBox="0 0 28 32">
<path d="M26.667 12.921c2.37 1.369 2.37 4.79 0 6.159l-21.333 12.317c-2.37 1.369-5.333-0.342-5.333-3.079v-24.634c0-2.737 2.963-4.448 5.333-3.079l21.333 12.317z"></path>
</symbol>
<symbol id="icon-arrow-left" viewBox="0 0 17 32">
<path d="M0 15.994c0 0.555 0.208 1.11 0.622 1.534l13.048 13.32c0.83 0.847 2.176 0.847 3.005 0s0.83-2.22 0-3.068l-11.545-11.786 11.545-11.786c0.83-0.847 0.83-2.221 0-3.068s-2.175-0.848-3.005 0l-13.048 13.32c-0.414 0.424-0.622 0.979-0.622 1.534z"></path>
</symbol>
<symbol id="icon-arrow" viewBox="0 0 9 32">
<path fill="white" d="M0.45 31.628c0.004 0.064 0.059 0.113 0.123 0.109l1.042-0.062c0.064-0.004 0.113-0.059 0.109-0.123s-0.059-0.112-0.123-0.109l-0.926 0.055-0.055-0.926c-0.004-0.064-0.059-0.113-0.123-0.109s-0.113 0.059-0.109 0.123l0.062 1.042zM3.27 0.408c0.165 0.181 0.326 0.362 0.481 0.544l0.176-0.151c-0.157-0.184-0.319-0.367-0.486-0.55l-0.171 0.156zM4.643 2.066c0.29 0.389 0.56 0.781 0.81 1.174l0.196-0.125c-0.254-0.398-0.527-0.794-0.82-1.188l-0.186 0.138zM6.173 4.472c0.228 0.427 0.435 0.856 0.621 1.285l0.213-0.092c-0.189-0.435-0.398-0.869-0.629-1.302l-0.205 0.109zM7.309 7.090c0.155 0.457 0.289 0.914 0.402 1.371l0.225-0.056c-0.115-0.463-0.251-0.926-0.408-1.389l-0.22 0.075zM7.999 9.86c0.077 0.474 0.135 0.947 0.173 1.418l0.231-0.019c-0.039-0.477-0.097-0.956-0.176-1.437l-0.229 0.037zM8.235 12.706c0.003 0.479-0.013 0.956-0.044 1.429l0.231 0.015c0.032-0.478 0.047-0.961 0.045-1.446l-0.232 0.001zM8.047 15.559c-0.064 0.475-0.143 0.946-0.236 1.411l0.227 0.045c0.094-0.47 0.174-0.945 0.238-1.426l-0.23-0.031zM7.49 18.365c-0.121 0.466-0.254 0.924-0.398 1.375l0.221 0.070c0.145-0.455 0.279-0.917 0.401-1.387l-0.224-0.058zM6.625 21.093c-0.169 0.454-0.348 0.898-0.533 1.332l0.213 0.091c0.186-0.437 0.366-0.884 0.537-1.342l-0.217-0.081zM5.501 23.733c-0.211 0.441-0.427 0.868-0.645 1.281l0.205 0.108c0.219-0.415 0.436-0.845 0.649-1.289l-0.209-0.1zM4.165 26.264c-0.251 0.433-0.5 0.845-0.744 1.234l0.196 0.123c0.246-0.391 0.497-0.805 0.749-1.241l-0.201-0.116zM2.638 28.695c-0.295 0.434-0.574 0.825-0.827 1.168l0.187 0.137c0.254-0.345 0.535-0.738 0.832-1.174l-0.192-0.131zM0.929 31.006c-0.142 0.176-0.255 0.311-0.332 0.402-0.039 0.045-0.068 0.080-0.088 0.102-0.010 0.012-0.017 0.020-0.022 0.026-0.003 0.003-0.004 0.005-0.006 0.006s-0.001 0.001-0.001 0.002-0 0-0 0-0 0-0 0 0 0 0 0 0 0 0 0 0 0 0.087 0.077 0.087 0.077 0.087 0.077 0-0 0-0 0 0 0 0 0 0 0 0 0-0 0-0 0.001-0.001 0.002-0.002 0.003-0.004 0.006-0.007c0.005-0.006 0.013-0.015 0.023-0.027 0.020-0.024 0.051-0.059 0.090-0.105 0.078-0.092 0.192-0.228 0.336-0.406l-0.18-0.146zM0.334 31.635c0.008 0.128 0.117 0.225 0.245 0.218l2.083-0.123c0.128-0.008 0.225-0.117 0.218-0.245s-0.117-0.225-0.245-0.218l-1.852 0.109-0.109-1.852c-0.008-0.128-0.117-0.225-0.245-0.218s-0.225 0.117-0.218 0.245l0.123 2.083zM3.184 0.486c0.164 0.18 0.324 0.36 0.479 0.541l0.352-0.302c-0.158-0.185-0.321-0.369-0.489-0.552l-0.342 0.313zM4.55 2.136c0.288 0.387 0.557 0.776 0.806 1.167l0.391-0.249c-0.255-0.4-0.53-0.799-0.825-1.195l-0.372 0.277zM6.071 4.527c0.227 0.425 0.432 0.85 0.617 1.277l0.425-0.185c-0.19-0.438-0.401-0.875-0.633-1.31l-0.409 0.218zM7.199 7.127c0.154 0.454 0.287 0.908 0.4 1.361l0.45-0.112c-0.116-0.466-0.252-0.932-0.411-1.398l-0.439 0.149zM7.885 9.878c0.077 0.471 0.134 0.941 0.172 1.409l0.462-0.038c-0.039-0.48-0.098-0.962-0.177-1.446l-0.458 0.075zM8.119 12.707c0.003 0.477-0.013 0.95-0.044 1.421l0.463 0.031c0.032-0.481 0.048-0.966 0.045-1.454l-0.464 0.003zM7.932 15.543c-0.064 0.473-0.143 0.941-0.235 1.404l0.455 0.091c0.094-0.472 0.174-0.95 0.239-1.433l-0.46-0.062zM7.378 18.336c-0.12 0.463-0.253 0.92-0.396 1.369l0.442 0.14c0.145-0.457 0.28-0.921 0.403-1.393l-0.449-0.117zM6.517 21.053c-0.169 0.452-0.346 0.895-0.531 1.327l0.427 0.182c0.187-0.438 0.367-0.888 0.539-1.347l-0.434-0.162zM5.397 23.683c-0.21 0.439-0.425 0.865-0.642 1.277l0.41 0.217c0.22-0.416 0.438-0.848 0.651-1.293l-0.418-0.2zM4.064 26.206c-0.25 0.432-0.499 0.843-0.742 1.23l0.393 0.247c0.246-0.392 0.498-0.807 0.751-1.245l-0.401-0.232zM2.542 28.629c-0.294 0.433-0.572 0.822-0.824 1.164l0.373 0.275c0.255-0.346 0.536-0.74 0.834-1.178l-0.383-0.261zM0.839 30.933c-0.142 0.175-0.254 0.309-0.33 0.4-0.038 0.045-0.068 0.079-0.087 0.101-0.010 0.011-0.017 0.020-0.022 0.025-0.002 0.003-0.004 0.005-0.005 0.006s-0.001 0.001-0.001 0.001-0 0-0 0-0 0-0 0 0 0 0 0 0 0 0 0 0 0 0.173 0.154 0.173 0.154 0.173 0.154 0 0 0-0 0 0 0 0 0 0 0 0 0-0 0-0.001 0.001-0.001 0.002-0.002 0.003-0.004 0.006-0.007 0.013-0.015 0.024-0.027c0.021-0.024 0.051-0.059 0.091-0.105 0.079-0.093 0.193-0.23 0.338-0.408l-0.361-0.292z"></path>
</symbol>
<symbol id="icon-check" viewBox="0 0 42 32">
<path d="M40.666 1.967c-0.806-0.804-2.112-0.804-2.918 0l-24.722 24.661-9.503-9.479c-0.806-0.804-2.112-0.804-2.918 0s-0.806 2.107 0 2.911l10.962 10.934c0.806 0.804 2.113 0.803 2.918 0l26.182-26.116c0.806-0.804 0.806-2.107 0-2.911z"></path>
</symbol>
<symbol id="icon-arrow-right" viewBox="0 0 17 32">
<path d="M17.297 15.994c0 0.555-0.208 1.11-0.622 1.534l-13.048 13.32c-0.83 0.847-2.176 0.847-3.005 0s-0.83-2.22 0-3.068l11.545-11.786-11.545-11.786c-0.83-0.847-0.83-2.221 0-3.068s2.175-0.848 3.005 0l13.048 13.32c0.415 0.424 0.622 0.979 0.622 1.534z"></path>
</symbol>
</defs>
</svg>
